<svg width="37" height="37" viewBox="0 0 37 37" fill="none" xmlns="http://www.w3.org/2000/svg">
<g clip-path="url(#clip0_23_34)">
<mask id="path-1-inside-1_23_34" fill="white">
<path fill-rule="evenodd" clip-rule="evenodd" d="M30.1647 10.6542C27.4828 7.97232 23.1346 7.97232 20.4527 10.6542L19.2174 11.8895C18.8269 12.28 18.1937 12.28 17.8032 11.8895L16.5679 10.6542C13.886 7.97229 9.5378 7.97229 6.85591 10.6542C4.17402 13.3361 4.17402 17.6843 6.85591 20.3662L8.79833 22.3086L17.8032 31.3135C18.1937 31.704 18.8269 31.704 19.2174 31.3135L30.1647 20.3662C32.8466 17.6843 32.8466 13.3361 30.1647 10.6542Z"/>
</mask>
<path d="M6.85591 20.3662L8.27013 18.952L8.27013 18.952L6.85591 20.3662ZM8.79833 22.3086L7.38412 23.7228L7.38412 23.7228L8.79833 22.3086ZM21.8669 12.0684C23.7678 10.1676 26.8497 10.1676 28.7505 12.0684L31.5789 9.23999C28.116 5.77705 22.5014 5.77706 19.0385 9.24L21.8669 12.0684ZM20.6316 13.3037L21.8669 12.0684L19.0385 9.24L17.8032 10.4753L20.6316 13.3037ZM15.1537 12.0684L16.389 13.3037L19.2174 10.4753L17.9821 9.23996L15.1537 12.0684ZM8.27012 12.0684C10.171 10.1675 13.2528 10.1675 15.1537 12.0684L17.9821 9.23996C14.5192 5.77702 8.90464 5.77702 5.4417 9.23996L8.27012 12.0684ZM8.27013 18.952C6.36928 17.0511 6.36928 13.9692 8.27012 12.0684L5.4417 9.23996C1.97875 12.7029 1.97876 18.3174 5.4417 21.7804L8.27013 18.952ZM10.2125 20.8944L8.27013 18.952L5.4417 21.7804L7.38412 23.7228L10.2125 20.8944ZM19.2174 29.8993L10.2125 20.8944L7.38412 23.7228L16.389 32.7277L19.2174 29.8993ZM28.7505 18.952L17.8032 29.8993L20.6316 32.7277L31.5789 21.7804L28.7505 18.952ZM28.7505 12.0684C30.6513 13.9693 30.6513 17.0511 28.7505 18.952L31.5789 21.7804C35.0419 18.3175 35.0419 12.7029 31.5789 9.23999L28.7505 12.0684ZM16.389 32.7277C17.5606 33.8993 19.4601 33.8993 20.6316 32.7277L17.8032 29.8993C18.1937 29.5087 18.8269 29.5087 19.2174 29.8993L16.389 32.7277ZM17.8032 10.4753C18.1937 10.0848 18.8269 10.0848 19.2174 10.4753L16.389 13.3037C17.5606 14.4753 19.4601 14.4753 20.6316 13.3037L17.8032 10.4753Z" fill="black" mask="url(#path-1-inside-1_23_34)"/>
</g>
<defs>
<clipPath id="clip0_23_34">
<rect width="37" height="37" fill="white"/>
</clipPath>
</defs>
</svg>
