<svg width="100" height="100" viewBox="0 0 100 100" fill="none" xmlns="http://www.w3.org/2000/svg">
<g clip-path="url(#clip0_3_8)">
<rect width="100" height="100" fill="white"/>
<path d="M0 0H100V100H0V0Z" fill="#D9D9D9"/>
<rect x="5" y="5" width="90" height="90" fill="#A5A5A5"/>
<path d="M14.3574 47.6289C14.3574 48.4902 14.0885 49.1305 13.5508 49.5498C13.013 49.9691 12.2588 50.1787 11.2881 50.1787H9.27148V54H8.33496V45.0791H11.2744C12.2542 45.0791 13.013 45.2933 13.5508 45.7217C14.0885 46.1455 14.3574 46.7812 14.3574 47.6289ZM13.4209 47.6289C13.4209 47.0137 13.2272 46.5693 12.8398 46.2959C12.4525 46.0179 11.9352 45.8789 11.2881 45.8789H9.27148V49.3789H11.2881C11.9352 49.3789 12.4525 49.2422 12.8398 48.9688C13.2272 48.6908 13.4209 48.2441 13.4209 47.6289ZM20.7354 54H16.9141V53.2002H18.3564V45.8789H16.9141V45.0791H19.2998V53.2002H20.7354V54ZM23.2715 52.2773C23.2715 51.8763 23.3717 51.5413 23.5723 51.2725C23.7728 50.999 24.0348 50.7848 24.3584 50.6299C24.6865 50.4704 25.0602 50.3564 25.4795 50.2881C25.9033 50.2152 26.334 50.1787 26.7715 50.1787C26.9401 50.1787 27.0905 50.181 27.2227 50.1855C27.3594 50.1901 27.487 50.1969 27.6055 50.2061C27.7285 50.2152 27.8516 50.2266 27.9746 50.2402C28.0977 50.2539 28.2321 50.2699 28.3779 50.2881V49.8301C28.3779 49.5202 28.3096 49.265 28.1729 49.0645C28.0407 48.8639 27.8766 48.7067 27.6807 48.5928C27.4847 48.4743 27.2796 48.3923 27.0654 48.3467C26.8512 48.2965 26.6689 48.2715 26.5186 48.2715C26.0446 48.2715 25.6071 48.3353 25.2061 48.4629C24.805 48.5905 24.4313 48.7614 24.085 48.9756L23.6611 48.2715C24.0439 48.0391 24.4723 47.8499 24.9463 47.7041C25.4248 47.5537 25.9489 47.4785 26.5186 47.4785C26.8649 47.4785 27.2044 47.5241 27.5371 47.6152C27.8743 47.7018 28.1751 47.8385 28.4395 48.0254C28.7083 48.2077 28.9225 48.4492 29.082 48.75C29.2415 49.0508 29.3213 49.4108 29.3213 49.8301V54H28.3779V52.9336C28.2139 53.1387 28.027 53.3187 27.8174 53.4736C27.6123 53.6286 27.3958 53.7562 27.168 53.8564C26.9401 53.9521 26.7122 54.0251 26.4844 54.0752C26.2565 54.1299 26.04 54.1572 25.835 54.1572C24.9919 54.1572 24.3538 53.9954 23.9209 53.6719C23.488 53.3483 23.2715 52.8835 23.2715 52.2773ZM25.835 53.3574C26.2269 53.3574 26.5778 53.3005 26.8877 53.1865C27.2021 53.068 27.4688 52.9222 27.6875 52.749C27.9062 52.5758 28.0749 52.3913 28.1934 52.1953C28.3164 51.9993 28.3779 51.8216 28.3779 51.6621V51.0605C28.0726 51.015 27.7786 50.9899 27.4961 50.9854C27.2181 50.9808 26.9766 50.9785 26.7715 50.9785C26.4342 50.9785 26.1084 51.0013 25.7939 51.0469C25.484 51.0924 25.2129 51.1676 24.9805 51.2725C24.748 51.3727 24.5612 51.5049 24.4199 51.6689C24.2786 51.833 24.208 52.0358 24.208 52.2773C24.208 52.5462 24.3379 52.7946 24.5977 53.0225C24.862 53.2458 25.2744 53.3574 25.835 53.3574ZM37.0596 52.7832C36.7907 53.2025 36.4215 53.5374 35.9521 53.7881C35.4873 54.0342 34.9336 54.1572 34.291 54.1572C33.7943 54.1572 33.3385 54.0752 32.9238 53.9111C32.5091 53.7471 32.1536 53.5192 31.8574 53.2275C31.5658 52.9313 31.3379 52.5804 31.1738 52.1748C31.0098 51.7692 30.9277 51.318 30.9277 50.8213C30.9277 50.3382 31.0029 49.8916 31.1533 49.4814C31.3037 49.0667 31.5179 48.7135 31.7959 48.4219C32.0739 48.1257 32.4134 47.8955 32.8145 47.7314C33.2201 47.5628 33.6689 47.4785 34.1611 47.4785C34.3571 47.4785 34.5576 47.5013 34.7627 47.5469C34.9678 47.5924 35.1615 47.6631 35.3438 47.7588C35.526 47.8499 35.6901 47.9616 35.8359 48.0938C35.9818 48.2214 36.0911 48.374 36.1641 48.5518V47.6289H37.0049V50.1787H36.1641C36.1641 49.8962 36.1117 49.6387 36.0068 49.4062C35.9066 49.1738 35.7676 48.9733 35.5898 48.8047C35.4121 48.6361 35.2002 48.5062 34.9541 48.415C34.708 48.3193 34.4437 48.2715 34.1611 48.2715C33.7783 48.2715 33.4434 48.3376 33.1562 48.4697C32.8737 48.6019 32.6367 48.7819 32.4453 49.0098C32.2539 49.2376 32.1081 49.5065 32.0078 49.8164C31.9121 50.1217 31.8643 50.4567 31.8643 50.8213C31.8643 51.1859 31.9189 51.5231 32.0283 51.833C32.1423 52.1383 32.304 52.4027 32.5137 52.626C32.7279 52.8493 32.9831 53.027 33.2793 53.1592C33.5801 53.2913 33.9173 53.3574 34.291 53.3574C34.765 53.3574 35.1865 53.264 35.5557 53.0771C35.9248 52.8903 36.2074 52.6419 36.4033 52.332L37.0596 52.7832ZM39.5068 51.1426C39.5752 51.8171 39.8213 52.3548 40.2451 52.7559C40.6689 53.1569 41.2204 53.3574 41.8994 53.3574C42.3779 53.3574 42.804 53.2594 43.1777 53.0635C43.5514 52.8675 43.8317 52.6237 44.0186 52.332L44.6748 52.7832C44.3558 53.2298 43.9753 53.5716 43.5332 53.8086C43.0911 54.041 42.5465 54.1572 41.8994 54.1572C41.4072 54.1572 40.9561 54.0752 40.5459 53.9111C40.1357 53.7471 39.7803 53.5192 39.4795 53.2275C39.1833 52.9313 38.9531 52.5804 38.7891 52.1748C38.625 51.7692 38.543 51.318 38.543 50.8213C38.543 50.3382 38.6159 49.8939 38.7617 49.4883C38.9121 49.0781 39.1263 48.7249 39.4043 48.4287C39.6868 48.1279 40.0286 47.8955 40.4297 47.7314C40.8307 47.5628 41.2796 47.4785 41.7764 47.4785C42.3187 47.4785 42.7926 47.5697 43.1982 47.752C43.6038 47.9342 43.9411 48.1872 44.21 48.5107C44.4834 48.8298 44.6839 49.2126 44.8115 49.6592C44.9437 50.1058 45.0098 50.6003 45.0098 51.1426H39.5068ZM44.0186 50.3428C43.9137 49.6455 43.6608 49.126 43.2598 48.7842C42.8587 48.4424 42.3643 48.2715 41.7764 48.2715C41.4756 48.2715 41.1976 48.3216 40.9424 48.4219C40.6872 48.5176 40.4616 48.6566 40.2656 48.8389C40.0697 49.0212 39.9056 49.2422 39.7734 49.502C39.6413 49.7572 39.557 50.0374 39.5205 50.3428H44.0186ZM52.249 54H51.3057V50.0693C51.3057 49.4997 51.1826 49.0576 50.9365 48.7432C50.6904 48.4287 50.2917 48.2715 49.7402 48.2715C49.3939 48.2715 49.0794 48.3512 48.7969 48.5107C48.5189 48.6702 48.2819 48.8844 48.0859 49.1533C47.89 49.4176 47.7396 49.723 47.6348 50.0693C47.5345 50.4111 47.4844 50.7689 47.4844 51.1426V54H46.5479V45.0791H47.4844V49.2285C47.9355 48.0618 48.7399 47.4785 49.8975 47.4785C51.4652 47.4785 52.249 48.3421 52.249 50.0693V54ZM60.3906 50.835C60.3906 51.3317 60.3109 51.7829 60.1514 52.1885C59.9964 52.5941 59.7708 52.9427 59.4746 53.2344C59.1829 53.5215 58.832 53.7471 58.4219 53.9111C58.0117 54.0752 57.5537 54.1572 57.0479 54.1572C56.5511 54.1572 56.0977 54.0752 55.6875 53.9111C55.2773 53.7471 54.9242 53.5215 54.6279 53.2344C54.3363 52.9427 54.1107 52.5941 53.9512 52.1885C53.7962 51.7829 53.7188 51.3317 53.7188 50.835C53.7188 50.3519 53.7962 49.903 53.9512 49.4883C54.1107 49.069 54.3363 48.7135 54.6279 48.4219C54.9242 48.1257 55.2773 47.8955 55.6875 47.7314C56.0977 47.5628 56.5511 47.4785 57.0479 47.4785C57.5537 47.4785 58.0117 47.5628 58.4219 47.7314C58.832 47.8955 59.1829 48.1257 59.4746 48.4219C59.7708 48.7135 59.9964 49.069 60.1514 49.4883C60.3109 49.903 60.3906 50.3519 60.3906 50.835ZM59.4541 50.835C59.4541 50.4704 59.3994 50.1354 59.29 49.8301C59.1852 49.5202 59.028 49.249 58.8184 49.0166C58.6087 48.7842 58.3535 48.6019 58.0527 48.4697C57.7565 48.3376 57.4215 48.2715 57.0479 48.2715C56.6742 48.2715 56.3369 48.3376 56.0361 48.4697C55.7399 48.6019 55.4893 48.7842 55.2842 49.0166C55.0791 49.249 54.9219 49.5202 54.8125 49.8301C54.7077 50.1354 54.6553 50.4704 54.6553 50.835C54.6553 51.1995 54.7077 51.5368 54.8125 51.8467C54.9219 52.152 55.0791 52.4163 55.2842 52.6396C55.4893 52.863 55.7399 53.0384 56.0361 53.166C56.3369 53.2936 56.6742 53.3574 57.0479 53.3574C57.4215 53.3574 57.7565 53.2936 58.0527 53.166C58.3535 53.0384 58.6087 52.863 58.8184 52.6396C59.028 52.4163 59.1852 52.152 59.29 51.8467C59.3994 51.5368 59.4541 51.1995 59.4541 50.835ZM66.5908 54H62.7695V53.2002H64.2119V45.8789H62.7695V45.0791H65.1553V53.2002H66.5908V54ZM75.1768 54H74.2334V53.4121C73.9645 53.6536 73.6683 53.8382 73.3447 53.9658C73.0257 54.0934 72.6976 54.1572 72.3604 54.1572C71.8545 54.1572 71.401 54.0752 71 53.9111C70.599 53.7471 70.2594 53.5192 69.9814 53.2275C69.708 52.9313 69.4961 52.5781 69.3457 52.168C69.1999 51.7578 69.127 51.3089 69.127 50.8213C69.127 50.3382 69.1999 49.8916 69.3457 49.4814C69.4961 49.0667 69.708 48.7135 69.9814 48.4219C70.2594 48.1257 70.599 47.8955 71 47.7314C71.401 47.5628 71.8545 47.4785 72.3604 47.4785C72.6976 47.4785 73.0257 47.54 73.3447 47.6631C73.6683 47.7816 73.9645 47.9616 74.2334 48.2031V45.8789H72.9619V45.0791H75.1768V54ZM74.2334 49.1123C73.9645 48.8161 73.6706 48.6019 73.3516 48.4697C73.0371 48.3376 72.7021 48.2715 72.3467 48.2715C71.973 48.2715 71.6426 48.3376 71.3555 48.4697C71.0729 48.6019 70.8359 48.7819 70.6445 49.0098C70.4531 49.2376 70.3073 49.5065 70.207 49.8164C70.1113 50.1217 70.0635 50.4567 70.0635 50.8213C70.0635 51.1859 70.1113 51.5231 70.207 51.833C70.3073 52.1383 70.4531 52.4049 70.6445 52.6328C70.8359 52.8607 71.0729 53.0407 71.3555 53.1729C71.6426 53.305 71.973 53.3711 72.3467 53.3711C73.0667 53.3711 73.6956 53.0863 74.2334 52.5166V49.1123ZM77.7197 51.1426C77.7881 51.8171 78.0342 52.3548 78.458 52.7559C78.8818 53.1569 79.4333 53.3574 80.1123 53.3574C80.5908 53.3574 81.0169 53.2594 81.3906 53.0635C81.7643 52.8675 82.0446 52.6237 82.2314 52.332L82.8877 52.7832C82.5687 53.2298 82.1882 53.5716 81.7461 53.8086C81.304 54.041 80.7594 54.1572 80.1123 54.1572C79.6201 54.1572 79.1689 54.0752 78.7588 53.9111C78.3486 53.7471 77.9932 53.5192 77.6924 53.2275C77.3962 52.9313 77.166 52.5804 77.002 52.1748C76.8379 51.7692 76.7559 51.318 76.7559 50.8213C76.7559 50.3382 76.8288 49.8939 76.9746 49.4883C77.125 49.0781 77.3392 48.7249 77.6172 48.4287C77.8997 48.1279 78.2415 47.8955 78.6426 47.7314C79.0436 47.5628 79.4925 47.4785 79.9893 47.4785C80.5316 47.4785 81.0055 47.5697 81.4111 47.752C81.8167 47.9342 82.154 48.1872 82.4229 48.5107C82.6963 48.8298 82.8968 49.2126 83.0244 49.6592C83.1566 50.1058 83.2227 50.6003 83.2227 51.1426H77.7197ZM82.2314 50.3428C82.1266 49.6455 81.8737 49.126 81.4727 48.7842C81.0716 48.4424 80.5771 48.2715 79.9893 48.2715C79.6885 48.2715 79.4105 48.3216 79.1553 48.4219C78.9001 48.5176 78.6745 48.6566 78.4785 48.8389C78.2826 49.0212 78.1185 49.2422 77.9863 49.502C77.8542 49.7572 77.7699 50.0374 77.7334 50.3428H82.2314ZM90.4482 48.5244C90.111 48.3558 89.71 48.2715 89.2451 48.2715C88.8623 48.2715 88.5205 48.3535 88.2197 48.5176C87.9189 48.6816 87.6637 48.8981 87.4541 49.167C87.2445 49.4313 87.0827 49.7367 86.9688 50.083C86.8594 50.4248 86.8047 50.778 86.8047 51.1426V53.2002H88.2471V54H84.4258V53.2002H85.8682V48.4287H84.4258V47.6289H86.8047V49.2285C87.2331 48.0618 88.0465 47.4785 89.2451 47.4785C89.5687 47.4785 89.849 47.499 90.0859 47.54C90.3275 47.5811 90.5508 47.654 90.7559 47.7588L90.4482 48.5244Z" fill="white"/>
</g>
<defs>
<clipPath id="clip0_3_8">
<rect width="100" height="100" fill="white"/>
</clipPath>
</defs>
</svg>
